{
  "accessors": [
    {
      "bufferView": 2,
      "componentType": 5126,
      "count": 2400,
      "max": [
        638537.625,
        1573247.25,
        132429.53125
      ],
      "min": [
        -513499.75,
        68360.125,
        -785826.375
      ],
      "type": "VEC3"
    },
    {
      "bufferView": 2,
      "byteOffset": 28800,
      "componentType": 5126,
      "count": 2400,
      "max": [
        0.9992125034332275,
        0.998903214931488,
        0.996048092842102
      ],
      "min": [
        -0.9992105960845947,
        -0.9989683628082275,
        -0.9960867166519165
      ],
      "type": "VEC3"
    },
    {
      "bufferView": 1,
      "componentType": 5126,
      "count": 2400,
      "max": [
        0.625,
        -0.0
      ],
      "min": [
        0.125,
        -1.0
      ],
      "type": "VEC2"
    },
    {
      "bufferView": 0,
      "componentType": 5125,
      "count": 3456,
      "type": "SCALAR"
    },
    {
      "bufferView": 2,
      "byteOffset": 57600,
      "componentType": 5126,
      "count": 872,
      "max": [
        379787.4375,
        1458290.625,
        8537.1875
      ],
      "min": [
        -267025.53125,
        790719.3125,
        -625166.625
      ],
      "type": "VEC3"
    },
    {
      "bufferView": 2,
      "byteOffset": 68064,
      "componentType": 5126,
      "count": 872,
      "max": [
        0.9951761364936829,
        0.9951375126838684,
        0.9480261206626892
      ],
      "min": [
        -0.9781737923622131,
        0.0974973812699318,
        -0.9572749137878418
      ],
      "type": "VEC3"
    },
    {
      "bufferView": 1,
      "byteOffset": 19200,
      "componentType": 5126,
      "count": 872,
      "max": [
        1.0,
        -0.5
      ],
      "min": [
        0.0,
        -1.0
      ],
      "type": "VEC2"
    },
    {
      "bufferView": 0,
      "byteOffset": 13824,
      "componentType": 5125,
      "count": 1260,
      "type": "SCALAR"
    },
    {
      "bufferView": 2,
      "byteOffset": 78528,
      "componentType": 5126,
      "count": 1112,
      "max": [
        379787.4375,
        1046187.75,
        15432.125
      ],
      "min": [
        -267025.53125,
        123147.875,
        -631380.875
      ],
      "type": "VEC3"
    },
    {
      "bufferView": 2,
      "byteOffset": 91872,
      "componentType": 5126,
      "count": 1112,
      "max": [
        0.9951761364936829,
        0.31511059403419495,
        0.9951761364936829
      ],
      "min": [
        -0.9951761364936829,
        -0.9951375126838684,
        -0.9951761364936829
      ],
      "type": "VEC3"
    },
    {
      "bufferView": 1,
      "byteOffset": 26176,
      "componentType": 5126,
      "count": 1112,
      "max": [
        1.0,
        0.0
      ],
      "min": [
        0.0,
        -0.625
      ],
      "type": "VEC2"
    },
    {
      "bufferView": 0,
      "byteOffset": 18864,
      "componentType": 5125,
      "count": 1620,
      "type": "SCALAR"
    }
  ],
  "asset": {
    "extras": {
      "author": "IronEqual (https://sketchfab.com/ie-niels)",
      "license": "CC-BY-4.0 (http://creativecommons.org/licenses/by/4.0/)",
      "source": "https://sketchfab.com/3d-models/pistachio-from-poly-by-google-e46820ffa6df484891bbf9e920ea43d1",
      "title": "Pistachio from Poly by Google"
    },
    "generator": "Sketchfab-12.65.0",
    "version": "2.0"
  },
  "bufferViews": [
    {
      "buffer": 0,
      "byteLength": 25344,
      "name": "floatBufferViews",
      "target": 34963
    },
    {
      "buffer": 0,
      "byteLength": 35072,
      "byteOffset": 25344,
      "byteStride": 8,
      "name": "floatBufferViews",
      "target": 34962
    },
    {
      "buffer": 0,
      "byteLength": 105216,
      "byteOffset": 60416,
      "byteStride": 12,
      "name": "floatBufferViews",
      "target": 34962
    }
  ],
  "buffers": [
    {
      "byteLength": 165632,
      "uri": "scene.bin"
    }
  ],
  "materials": [
    {
      "doubleSided": true,
      "name": "crayfishdiffuse",
      "pbrMetallicRoughness": {
        "baseColorFactor": [
          0.8196,
          0.5176,
          0.2706,
          1.0
        ],
        "metallicFactor": 0.0,
        "roughnessFactor": 0.912438
      }
    },
    {
      "doubleSided": true,
      "name": "02___Default",
      "pbrMetallicRoughness": {
        "baseColorFactor": [
          0.0,
          1.0,
          0.0706,
          1.0
        ],
        "metallicFactor": 0.0,
        "roughnessFactor": 0.969948
      }
    },
    {
      "doubleSided": true,
      "name": "03___Default",
      "pbrMetallicRoughness": {
        "baseColorFactor": [
          0.5608,
          0.0392,
          0.0118,
          1.0
        ],
        "metallicFactor": 0.0,
        "roughnessFactor": 0.969948
      }
    }
  ],
  "meshes": [
    {
      "name": "Object_0",
      "primitives": [
        {
          "attributes": {
            "NORMAL": 1,
            "POSITION": 0,
            "TEXCOORD_0": 2
          },
          "indices": 3,
          "material": 0,
          "mode": 4
        }
      ]
    },
    {
      "name": "Object_1",
      "primitives": [
        {
          "attributes": {
            "NORMAL": 5,
            "POSITION": 4,
            "TEXCOORD_0": 6
          },
          "indices": 7,
          "material": 1,
          "mode": 4
        }
      ]
    },
    {
      "name": "Object_2",
      "primitives": [
        {
          "attributes": {
            "NORMAL": 9,
            "POSITION": 8,
            "TEXCOORD_0": 10
          },
          "indices": 11,
          "material": 2,
          "mode": 4
        }
      ]
    }
  ],
  "nodes": [
    {
      "children": [
        1
      ],
      "matrix": [
        1.0,
        0.0,
        0.0,
        0.0,
        0.0,
        2.220446049250313e-16,
        -1.0,
        0.0,
        0.0,
        1.0,
        2.220446049250313e-16,
        0.0,
        0.0,
        0.0,
        0.0,
        1.0
      ],
      "name": "Sketchfab_model"
    },
    {
      "children": [
        2
      ],
      "name": "root"
    },
    {
      "children": [
        3
      ],
      "matrix": [
        1.0,
        0.0,
        0.0,
        0.0,
        0.0,
        2.220446049250313e-16,
        1.0,
        0.0,
        0.0,
        -1.0,
        2.220446049250313e-16,
        0.0,
        0.0,
        0.0,
        0.0,
        1.0
      ],
      "name": "GLTF_SceneRootNode"
    },
    {
      "children": [
        4,
        5,
        6
      ],
      "name": "node-0_0"
    },
    {
      "mesh": 0,
      "name": "Object_4"
    },
    {
      "mesh": 1,
      "name": "Object_5"
    },
    {
      "mesh": 2,
      "name": "Object_6"
    }
  ],
  "scene": 0,
  "scenes": [
    {
      "name": "Sketchfab_Scene",
      "nodes": [
        0
      ]
    }
  ]
}
